# xmcd
#
# Track frame offsets:
#	150
#	12230
#	26465
#	40307
#	53201
#	67116
#	86602
#	99856
#	114116
#	128762
#
# Disc length: 1911 seconds
#
# Revision: 1
# Processed by: cddbd v1.5.2PL0 Copyright (c) Steve Scherf et al.
# Submitted via: audiograbber 1.83.01
#
DISCID=7507750a
DTITLE=Leadbelly - Leadbelly - The Blues Collection
DYEAR=2005
DGENRE=Blues
TTITLE0=Goodnight Irene
TTITLE1=The Boll Weevil
TTITLE2=Dekalb Blues
TTITLE3=Fannin Street
TTITLE4=Poor Howard - Green Corn
TTITLE5=John Hardy
TTITLE6=Frankie And Albert (Part One)
TTITLE7=Frankie And Albert (Part Two)
TTITLE8=Ain't Goin' Down To The Well No More - Go Down Ol' Hannah
TTITLE9=Looky Looky Yonder - Black Betty - Yallow Women's Doorbells
EXTD=
EXTT0=
EXTT1=
EXTT2=
EXTT3=
EXTT4=
EXTT5=
EXTT6=
EXTT7=
EXTT8=
EXTT9=
PLAYORDER=
